<svg xmlns="http://www.w3.org/2000/svg" xmlns:xlink="http://www.w3.org/1999/xlink" version="1.1" id="Capa_1" x="0px" y="0px" viewBox="0 0 512 512" style="enable-background:new 0 0 512 512;" xml:space="preserve" width="512" height="512" class=""><g><g>
	<path style="fill:#DDD7D7" d="M97.103,0h317.793c19.501,0,35.31,15.809,35.31,35.31v79.448H61.793V35.31   C61.793,15.809,77.602,0,97.103,0z" data-original="#CC4B4C" class="active-path" data-old_color="#DFD8D8"></path>
	<path style="fill:#E61717" d="M150.069,35.31h211.862c9.751,0,17.655,7.904,17.655,17.655v26.483H132.414V52.966   C132.414,43.215,140.318,35.31,150.069,35.31z" data-original="#802F34" class="" data-old_color="#802F34"></path>
	<path style="fill:#DDD7D7" d="M61.793,247.172v150.069l23.574,48.019c1.491,3.03,4.575,4.949,7.953,4.947h325.36   c3.377,0.002,6.462-1.916,7.953-4.947l23.574-48.019V247.172H61.793z" data-original="#CC4B4C" class="active-path" data-old_color="#DFD8D8"></path>
	<path style="fill:#E61717" d="M450.207,397.241l-23.574,48.019c-1.491,3.03-4.576,4.949-7.953,4.947H93.32   c-3.377,0.002-6.462-1.916-7.953-4.947l-23.574-48.019H450.207z" data-original="#802F34" class="" data-old_color="#802F34"></path>
	<g>
		<path style="fill:#5E5F62;" d="M97.103,450.207h70.621v44.138c0,9.751-7.904,17.655-17.655,17.655h-35.31    c-9.751,0-17.655-7.905-17.655-17.655V450.207z" data-original="#5E5F62" class=""></path>
		<path style="fill:#5E5F62;" d="M344.276,450.207h70.621v44.138c0,9.751-7.904,17.655-17.655,17.655h-35.31    c-9.751,0-17.655-7.905-17.655-17.655V450.207z" data-original="#5E5F62" class=""></path>
	</g>
	<path style="fill:#F0C419;" d="M167.724,344.276c-0.071,9.721-7.934,17.585-17.655,17.655H97.103v-35.31h52.966   C159.808,326.649,167.696,334.537,167.724,344.276z" data-original="#F0C419"></path>
	<rect x="414.897" y="326.621" style="fill:#F29C1F;" width="35.31" height="35.31" data-original="#F29C1F"></rect>
	<path style="fill:#F0C419;" d="M344.276,344.276c0.071,9.721,7.934,17.585,17.655,17.655h52.966v-35.31h-52.966   C352.192,326.649,344.304,334.537,344.276,344.276z" data-original="#F0C419"></path>
	<g>
		<rect x="432.552" y="132.414" style="fill:#BDC3C7;" width="61.793" height="61.793" data-original="#BDC3C7"></rect>
		<rect x="17.655" y="132.414" style="fill:#BDC3C7;" width="61.793" height="61.793" data-original="#BDC3C7"></rect>
	</g>
	<rect x="61.793" y="79.448" style="fill:#84B5CB;" width="388.414" height="203.034" data-original="#84B5CB"></rect>
	<g>
		<path style="fill:#5E5F62;" d="M8.828,114.759h17.655c4.875,0,8.828,3.952,8.828,8.828v79.448c0,4.875-3.952,8.828-8.828,8.828    H8.828c-4.875,0-8.828-3.952-8.828-8.828v-79.448C0,118.711,3.952,114.759,8.828,114.759z" data-original="#5E5F62" class=""></path>
		<path style="fill:#5E5F62;" d="M503.172,211.862h-17.655c-4.875,0-8.828-3.952-8.828-8.828v-79.448    c0-4.875,3.952-8.828,8.828-8.828h17.655c4.875,0,8.828,3.952,8.828,8.828v79.448C512,207.91,508.048,211.862,503.172,211.862z" data-original="#5E5F62" class=""></path>
	</g>
	<rect x="61.793" y="326.621" style="fill:#F29C1F;" width="35.31" height="35.31" data-original="#F29C1F"></rect>
	<g>
		<path style="fill:#FFFFFF" d="M370.759,123.586h-44.138c-4.875,0-8.828-3.952-8.828-8.828s3.952-8.828,8.828-8.828h44.138    c4.875,0,8.828,3.952,8.828,8.828S375.634,123.586,370.759,123.586z" data-original="#FFFFFF" class=""></path>
		<path style="fill:#FFFFFF" d="M414.897,123.586h-8.828c-4.875,0-8.828-3.952-8.828-8.828s3.952-8.828,8.828-8.828h8.828    c4.875,0,8.828,3.952,8.828,8.828S419.772,123.586,414.897,123.586z" data-original="#FFFFFF" class=""></path>
	</g>
</g></g> </svg>